<svg xmlns="http://www.w3.org/2000/svg" width="257.128" height="257.128" viewBox="0 0 257.128 257.128">
    <path fill="#fff" d="M974.612 306.316a127.443 127.443 0 1 0 127.442 127.443 127.587 127.587 0 0 0-127.442-127.443zm0 241.426A113.983 113.983 0 1 1 1088.6 433.759a114.111 114.111 0 0 1-113.988 113.983z" opacity="0.23" transform="translate(-846.049 -305.195)"/>
    <path fill="#ff5155" d="M973.37 305.492a2.946 2.946 0 0 0-2.947 2.945v9.811a2.946 2.946 0 0 0 2.947 2.945h.188c62.808 0 114.575 50.716 114.212 113.525a112.992 112.992 0 0 1-112.2 112.2c-62.807.363-113.524-51.4-113.524-114.211a3.136 3.136 0 0 0-3.137-3.137h-9.619a2.947 2.947 0 0 0-2.946 2.947c0 71.547 57.772 130.514 129.318 130.1a128.713 128.713 0 0 0 127.807-127.807c.415-71.547-58.552-129.318-130.099-129.318z" transform="translate(-846.346 -305.492)"/>
</svg>
